REM DIRINDEX 1\2,1\3
REM DIRNAME folder01,folder02,folder03
TITLE ""
FILE "21.mp3" MP3
  TRACK 01 AUDIO
    TITLE "0:"
    INDEX 01 00:00:00
  TRACK 02 AUDIO
    TITLE "3:cjc132_0341"
    INDEX 01 00:00:11
  TRACK 03 AUDIO
    TITLE "0:"
    INDEX 01 00:01:11
  TRACK 04 AUDIO
    TITLE "2:cjc132_0342"
    INDEX 01 00:01:60
  TRACK 05 AUDIO
    TITLE "0:"
    INDEX 01 00:03:68
  TRACK 06 AUDIO
    TITLE "2:cjc132_0343"
    INDEX 01 00:04:38
  TRACK 07 AUDIO
    TITLE "0:"
    INDEX 01 00:06:24
  TRACK 08 AUDIO
    TITLE "2:cjc132_0344"
    INDEX 01 00:06:69
  TRACK 09 AUDIO
    TITLE "0:"
    INDEX 01 00:08:32
  TRACK 10 AUDIO
    TITLE "2:cjc132_0345"
    INDEX 01 00:09:06
  TRACK 11 AUDIO
    TITLE "0:"
    INDEX 01 00:10:51
  TRACK 12 AUDIO
    TITLE "2:cjc132_0346"
    INDEX 01 00:11:21
  TRACK 13 AUDIO
    TITLE "0:"
    INDEX 01 00:12:50
  TRACK 14 AUDIO
    TITLE "2:cjc132_0347"
    INDEX 01 00:13:61
  TRACK 15 AUDIO
    TITLE "0:"
    INDEX 01 00:15:23
  TRACK 16 AUDIO
    TITLE "2:cjc132_0348"
    INDEX 01 00:17:04
  TRACK 17 AUDIO
    TITLE "0:"
    INDEX 01 00:18:68
  TRACK 18 AUDIO
    TITLE "2:cjc132_0349"
    INDEX 01 00:21:06
  TRACK 19 AUDIO
    TITLE "0:"
    INDEX 01 00:22:44
  TRACK 20 AUDIO
    TITLE "2:cjc132_0350"
    INDEX 01 00:24:27
  TRACK 21 AUDIO
    TITLE "0:"
    INDEX 01 00:26:15
  TRACK 22 AUDIO
    TITLE "2:cjc132_0351"
    INDEX 01 00:28:21
  TRACK 23 AUDIO
    TITLE "0:"
    INDEX 01 00:30:36
  TRACK 24 AUDIO
    TITLE "2:cjc132_0352"
    INDEX 01 00:32:74
  TRACK 25 AUDIO
    TITLE "0:"
    INDEX 01 00:34:71
  TRACK 26 AUDIO
    TITLE "2:cjc132_0353"
    INDEX 01 00:37:14
  TRACK 27 AUDIO
    TITLE "0:"
    INDEX 01 00:38:69
  TRACK 28 AUDIO
    TITLE "2:cjc132_0354"
    INDEX 01 00:40:70
  TRACK 29 AUDIO
    TITLE "0:"
    INDEX 01 00:42:41
  TRACK 30 AUDIO
    TITLE "2:cjc132_0355"
    INDEX 01 00:44:34
  TRACK 31 AUDIO
    TITLE "0:"
    INDEX 01 00:46:29
  TRACK 32 AUDIO
    TITLE "2:cjc132_0356"
    INDEX 01 00:48:49
  TRACK 33 AUDIO
    TITLE "0:"
    INDEX 01 00:50:29
  TRACK 34 AUDIO
    TITLE "2:cjc132_0357"
    INDEX 01 00:52:34
  TRACK 35 AUDIO
    TITLE "0:"
    INDEX 01 00:55:03
  TRACK 36 AUDIO
    TITLE "2:cjc132_0358"
    INDEX 01 00:57:72
  TRACK 37 AUDIO
    TITLE "0:"
    INDEX 01 01:00:00
  TRACK 38 AUDIO
    TITLE "2:cjc132_0359"
    INDEX 01 01:02:26
  TRACK 39 AUDIO
    TITLE "0:"
    INDEX 01 01:04:03
  TRACK 40 AUDIO
    TITLE "2:cjc132_0360"
    INDEX 01 01:06:04
  TRACK 41 AUDIO
    TITLE "0:"
    INDEX 01 01:07:68
  TRACK 42 AUDIO
    TITLE "2:cjc132_0361"
    INDEX 01 01:10:08
  TRACK 43 AUDIO
    TITLE "0:"
    INDEX 01 01:11:62
  TRACK 44 AUDIO
    TITLE "2:cjc132_0362"
    INDEX 01 01:13:61
  TRACK 45 AUDIO
    TITLE "0:"
    INDEX 01 01:15:66
  TRACK 46 AUDIO
    TITLE "2:cjc132_0363"
    INDEX 01 01:18:19
  TRACK 47 AUDIO
    TITLE "0:"
    INDEX 01 01:20:38
  TRACK 48 AUDIO
    TITLE "2:cjc132_0364"
    INDEX 01 01:23:03
  TRACK 49 AUDIO
    TITLE "0:"
    INDEX 01 01:24:59
  TRACK 50 AUDIO
    TITLE "2:cjc132_0365"
    INDEX 01 01:26:66
  TRACK 51 AUDIO
    TITLE "0:"
    INDEX 01 01:28:35
  TRACK 52 AUDIO
    TITLE "2:cjc132_0366"
    INDEX 01 01:30:20
  TRACK 53 AUDIO
    TITLE "0:"
    INDEX 01 01:32:17
  TRACK 54 AUDIO
    TITLE "2:cjc132_0367"
    INDEX 01 01:34:36
  TRACK 55 AUDIO
    TITLE "0:"
    INDEX 01 01:36:41
  TRACK 56 AUDIO
    TITLE "2:cjc132_0368"
    INDEX 01 01:38:65
  TRACK 57 AUDIO
    TITLE "0:"
    INDEX 01 01:40:38
  TRACK 58 AUDIO
    TITLE "2:cjc132_0369"
    INDEX 01 01:42:39
  TRACK 59 AUDIO
    TITLE "0:"
    INDEX 01 01:44:15
  TRACK 60 AUDIO
    TITLE "2:cjc132_0370"
    INDEX 01 01:46:12
  TRACK 61 AUDIO
    TITLE "0:"
    INDEX 01 01:47:74
  TRACK 62 AUDIO
    TITLE "2:cjc132_0371"
    INDEX 01 01:50:11
  TRACK 63 AUDIO
    TITLE "0:"
    INDEX 01 01:52:08
  TRACK 64 AUDIO
    TITLE "2:cjc132_0372"
    INDEX 01 01:54:27
  TRACK 65 AUDIO
    TITLE "0:"
    INDEX 01 01:56:26
  TRACK 66 AUDIO
    TITLE "2:cjc132_0373"
    INDEX 01 01:58:42
  TRACK 67 AUDIO
    TITLE "0:"
    INDEX 01 02:00:29
  TRACK 68 AUDIO
    TITLE "2:cjc132_0374"
    INDEX 01 02:02:36
  TRACK 69 AUDIO
    TITLE "0:"
    INDEX 01 02:04:66
  TRACK 70 AUDIO
    TITLE "2:cjc132_0375"
    INDEX 01 02:07:41
  TRACK 71 AUDIO
    TITLE "0:"
    INDEX 01 02:09:15
  TRACK 72 AUDIO
    TITLE "2:cjc132_0376"
    INDEX 01 02:11:12
  TRACK 73 AUDIO
    TITLE "0:"
    INDEX 01 02:12:68
  TRACK 74 AUDIO
    TITLE "2:cjc132_0377"
    INDEX 01 02:14:71
  TRACK 75 AUDIO
    TITLE "0:"
    INDEX 01 02:16:68
  TRACK 76 AUDIO
    TITLE "2:cjc132_0378"
    INDEX 01 02:19:13
  TRACK 77 AUDIO
    TITLE "0:"
    INDEX 01 02:20:56
  TRACK 78 AUDIO
    TITLE "2:cjc132_0379"
    INDEX 01 02:22:47
  TRACK 79 AUDIO
    TITLE "0:"
    INDEX 01 02:24:14
  TRACK 80 AUDIO
    TITLE "2:cjc132_0380"
    INDEX 01 02:26:09
  TRACK 81 AUDIO
    TITLE "0:"
    INDEX 01 02:28:14
  TRACK 82 AUDIO
    TITLE "2:cjc132_0381"
    INDEX 01 02:30:46
  TRACK 83 AUDIO
    TITLE "0:"
    INDEX 01 02:32:18
  TRACK 84 AUDIO
    TITLE "2:cjc132_0382"
    INDEX 01 02:34:11
  TRACK 85 AUDIO
    TITLE "0:"
    INDEX 01 02:35:36
  TRACK 86 AUDIO
    TITLE "2:cjc132_0383"
    INDEX 01 02:37:07
  TRACK 87 AUDIO
    TITLE "0:"
    INDEX 01 02:38:59
  TRACK 88 AUDIO
    TITLE "2:cjc132_0384"
    INDEX 01 02:40:58
  TRACK 89 AUDIO
    TITLE "0:"
    INDEX 01 02:42:32
  TRACK 90 AUDIO
    TITLE "2:cjc132_0385"
    INDEX 01 02:44:31
  TRACK 91 AUDIO
    TITLE "0:"
    INDEX 01 02:46:39
  TRACK 92 AUDIO
    TITLE "2:cjc132_0386"
    INDEX 01 02:48:68
  TRACK 93 AUDIO
    TITLE "0:"
    INDEX 01 02:50:59
  TRACK 94 AUDIO
    TITLE "2:cjc132_0387"
    INDEX 01 02:53:00
  TRACK 95 AUDIO
    TITLE "0:"
    INDEX 01 02:54:62
